<svg xmlns="http://www.w3.org/2000/svg" viewBox="0 0 512 512">
    <path
        d="M441.324 118.126h-79.55a9.447 9.447 0 0 0-9.45 9.45v56.489h-2.731v-14.31a9.451 9.451 0 0 0-9.45-9.45H206.4a9.449 9.449 0 0 0-9.45 9.45v14.31h-37.28v-56.489a9.451 9.451 0 0 0-9.45-9.45H70.672a9.449 9.449 0 0 0-9.45 9.45v179.83a9.449 9.449 0 0 0 9.45 9.45h79.55a9.451 9.451 0 0 0 9.45-9.45v-56.488h2.945v29.1a9.49 9.49 0 0 0 .205 1.953c.025.107.07.208.097.321a9.848 9.848 0 0 0 .491 1.508c.073.168.177.315.259.473a9.47 9.47 0 0 0 .677 1.175c.13.18.284.337.423.51a9.386 9.386 0 0 0 .837.926c.054.05.089.11.145.16l40.314 36.22v61.16a9.449 9.449 0 0 0 9.45 9.45h99.074a9.451 9.451 0 0 0 9.45-9.45v-60.512l24.986-68.78c.047-.126.05-.262.088-.39a9.162 9.162 0 0 0 .346-1.497c.035-.242.057-.479.072-.721.013-.208.063-.407.063-.621v-.986h2.732v56.489a9.447 9.447 0 0 0 9.45 9.45h79.55a9.451 9.451 0 0 0 9.45-9.45v-179.83a9.457 9.457 0 0 0-9.453-9.45zM330.692 242.451H307v-63.246h23.692zm-71.133-63.246h28.542v63.245H259.56zm-18.904 0v35.135H215.85v-35.135zm-59.14 91.359V233.24h56.91v37.324zm124.188 48.453a9.477 9.477 0 0 0-.567 3.226v52.724h-80.174v-55.921a9.443 9.443 0 0 0-3.134-7.028l-25.103-22.55h51.15a9.452 9.452 0 0 0 9.45-9.45v-18.665h69.325z"
        data-name="Gym" />
</svg>