<svg width="51" height="50" viewBox="0 0 51 50" fill="none" xmlns="http://www.w3.org/2000/svg">
    <g clip-path="url(#clip0)">
        <circle cx="25.5" cy="25" r="25" fill="#FF6C37" />
        <path
            d="M31.5 20c1.38 0 2.5-1.12 2.5-2.5S32.88 15 31.5 15s-2.5 1.12-2.5 2.5S30.12 20 31.5 20z"
            fill="#fff" />
        <path
            d="M21.5 28c1.38 0 2.5-1.12 2.5-2.5S22.88 23 21.5 23s-2.5 1.12-2.5 2.5S20.12 28 21.5 28z"
            fill="#fff" />
        <path
            d="M27.5 30c1.38 0 2.5-1.12 2.5-2.5S28.88 25 27.5 25s-2.5 1.12-2.5 2.5S26.12 30 27.5 30z"
            fill="#fff" />
    </g>
    <defs>
        <clipPath id="clip0">
            <rect width="50" height="50" fill="white" />
        </clipPath>
    </defs>
</svg>
  