<svg version="1.1" id="Layer_1" xmlns="http://www.w3.org/2000/svg" x="0" y="0" viewBox="0 0 256 256"
    style="enable-background:new 0 0 256 256" xml:space="preserve"><style>.st0{fill:#382b73}</style><switch><g><circle class="st0" cx="128" cy="128" r="120"/><circle cx="128" cy="128" r="102.5" style="fill:#473080"/><path class="st0" d="M210.134 139.409a4.997 4.997 0 0 0-.064-7.37 151.023 151.023 0 0 0-1.977-1.746l-.007-.006-.485-.42c-.292-.251-.596-.51-.906-.773-13.345-11.308-43.563-33.043-78.715-33.043s-65.37 21.735-78.715 33.043l-.538.459c-.731.626-1.41 1.216-2.029 1.766v.001c-.21.186-.417.37-.613.547l-.008.008-.185.165c-2.124 1.915-2.185 5.167-.228 7.188.079.082.14.175.226.253l.001.001.001.001.059.053.008.007.37.33c.602.539 1.253 1.112 1.971 1.731l.018.015c.379.327.771.661 1.182 1.008l.034.029.003.003c.329.277.678.566 1.027.856l.534.443a161.165 161.165 0 0 0 1.589 1.288l.013.01c.271.218.556.441.837.663.25.198.492.391.749.592a171.693 171.693 0 0 0 1.575 1.214l.009.007c.39.297.796.6 1.201.903.273.204.539.406.819.613l.002.002.119.087.002.002c.551.406 1.117.816 1.692 1.229h.001l.331.239.011.008a166.182 166.182 0 0 0 1.838 1.293 161.288 161.288 0 0 0 9.593 6.168l.008.005c.388.23.787.458 1.181.686.509.296 1.016.592 1.535.885l.005.003c.283.16.574.317.859.476a144.18 144.18 0 0 0 3.682 1.984c.093.049.184.098.278.146h.001a137.871 137.871 0 0 0 6.031 2.939l.006.003a131.4 131.4 0 0 0 2.599 1.15l.003.001.56.24.005.002c.511.217 1.03.426 1.546.637 1.459.598 2.935 1.179 4.44 1.727l.004.002c.432.157.871.305 1.306.457 2.08.731 4.2 1.408 6.357 2.025.492.14.979.285 1.474.419l.003.001.585.158c.958.253 1.922.495 2.893.722l.004.001c.174.041.35.079.524.119l.011.003c.923.211 1.852.411 2.786.597l.007.002c2.657.529 5.362.943 8.103 1.247a97.568 97.568 0 0 0 2.193.224c.182.016.363.033.545.048 1.025.082 2.055.145 3.089.192h.004a85.71 85.71 0 0 0 3.871.092c1.298 0 2.587-.035 3.871-.092h.004a89.658 89.658 0 0 0 3.089-.192c.182-.015.363-.033.545-.048l.005-.001c.733-.063 1.46-.143 2.188-.223a95.718 95.718 0 0 0 8.103-1.247l.007-.002a100.38 100.38 0 0 0 2.786-.597l.011-.003c.175-.04.35-.078.525-.119l.004-.001c.971-.227 1.935-.469 2.893-.722l.585-.158.003-.001c.495-.134.983-.279 1.474-.419a112.433 112.433 0 0 0 6.357-2.025c.435-.152.875-.3 1.306-.457l.005-.002c1.505-.549 2.981-1.13 4.44-1.727.516-.212 1.036-.42 1.546-.637l.005-.002c.187-.079.374-.159.56-.24l.003-.001c.874-.377 1.743-.759 2.599-1.15l.006-.003a137.871 137.871 0 0 0 6.031-2.939h.001c.094-.048.184-.098.278-.146a144.18 144.18 0 0 0 3.682-1.984c.285-.159.576-.316.859-.476l.005-.003c.519-.293 1.026-.589 1.535-.885.394-.229.794-.456 1.181-.686l.008-.005a158.222 158.222 0 0 0 5.187-3.216l.009-.006c.343-.222.675-.444 1.014-.665.377-.248.76-.496 1.13-.744l.006-.004c.316-.212.62-.421.929-.632.443-.301.888-.602 1.319-.9l.007-.005c.623-.432 1.233-.862 1.83-1.288l.011-.008.331-.239h.001a191 191 0 0 0 1.692-1.229l.002-.002.119-.087.002-.002c.28-.207.546-.409.819-.613.853-.638 1.678-1.265 2.466-1.878.102-.08.211-.162.313-.241a162.048 162.048 0 0 0 3.446-2.766l.015-.013c.445-.368.881-.729 1.295-1.079l.003-.003c.197-.166.376-.321.566-.483.219-.187.445-.378.655-.559l.01-.009.183-.158.006-.005a151.36 151.36 0 0 0 2.222-1.959l.001-.001c.03-.024.045-.051.068-.073z"/><g><path d="M210.07 125.039a5.004 5.004 0 0 1 0 7.442c-10.953 9.874-43.563 35.988-82.089 35.988-38.526 0-71.136-26.115-82.089-35.988a5.004 5.004 0 0 1 0-7.442c10.953-9.874 43.563-35.988 82.089-35.988 38.526-.001 71.136 26.114 82.089 35.988z" style="fill:#1caee4"/><path d="M131.856 168.376a89.658 89.658 0 0 0 3.089-.192c.184-.015.367-.033.55-.049a90.64 90.64 0 0 0 2.877-.293c.127-.015.255-.027.381-.043a92.376 92.376 0 0 0 3.049-.428l.651-.104a95.383 95.383 0 0 0 3.008-.535l.331-.068a100.38 100.38 0 0 0 2.786-.597c.18-.041.36-.081.539-.123.971-.227 1.935-.469 2.893-.722.197-.052.392-.106.588-.159.957-.259 1.909-.527 2.852-.81l.087-.025a109.95 109.95 0 0 0 3.459-1.107c.921-.31 1.835-.629 2.74-.959.154-.056.305-.114.458-.17.845-.312 1.684-.632 2.515-.96l.372-.145c.891-.355 1.771-.719 2.645-1.091l.568-.243c.874-.377 1.743-.759 2.599-1.15l.228-.106c.814-.373 1.617-.753 2.414-1.138.157-.076.316-.151.472-.228.822-.401 1.635-.808 2.438-1.219.163-.083.324-.167.486-.251.786-.407 1.565-.816 2.332-1.231l.129-.069c.798-.432 1.581-.869 2.357-1.307l.484-.275c.756-.431 1.503-.864 2.237-1.3l.339-.203a161.53 161.53 0 0 0 2.024-1.228l.316-.195a155.293 155.293 0 0 0 2.525-1.602c.689-.446 1.37-.892 2.035-1.336l.115-.077c.643-.43 1.271-.859 1.89-1.286l.365-.252c.623-.432 1.233-.862 1.83-1.288l.344-.247a191 191 0 0 0 1.692-1.229l.124-.091c.579-.427 1.141-.849 1.692-1.267l.337-.256c.536-.408 1.061-.813 1.569-1.21l.208-.163c.474-.372.936-.737 1.385-1.097l.221-.176c.475-.382.934-.755 1.38-1.122l.268-.221c.445-.368.881-.729 1.295-1.079l.033-.028c.414-.35.809-.687 1.192-1.017l.199-.171a151.36 151.36 0 0 0 2.166-1.91l.058-.052a5.003 5.003 0 0 0 .008-7.43l-.198-.179c-.213-.192-.436-.39-.665-.593l-.563-.496a251.606 251.606 0 0 0-1.053-.915c-.292-.251-.596-.51-.906-.773-13.347 11.309-43.566 33.042-78.715 33.042s-65.368-21.733-78.715-33.042a183.109 183.109 0 0 0-1.406 1.206l-.544.474-.619.545c-.21.187-.417.37-.613.547l-.203.184a5.003 5.003 0 0 0 .008 7.429l.069.062c.286.257.589.528.905.807l.182.161c.338.298.693.608 1.063.927l.21.181c.381.328.773.664 1.185 1.011l.034.028c.413.348.846.709 1.29 1.075l.277.229c.444.365.902.737 1.376 1.118l.222.177c.447.358.906.721 1.377 1.091l.217.171a171.693 171.693 0 0 0 3.595 2.73l.124.091c.551.406 1.117.816 1.692 1.229l.343.247c.597.426 1.208.856 1.831 1.288l.366.252c.616.425 1.242.852 1.882 1.281l.124.084c.664.444 1.344.889 2.032 1.334.144.093.288.187.434.28.686.441 1.382.882 2.091 1.322l.316.195a161.53 161.53 0 0 0 4.6 2.731l.484.275c.776.439 1.559.875 2.357 1.307l.129.069c.767.415 1.546.824 2.332 1.231.162.084.323.168.486.251.803.411 1.616.818 2.438 1.219l.472.228c.796.385 1.6.765 2.414 1.138l.228.106a131.4 131.4 0 0 0 2.599 1.15l.568.243c.873.371 1.754.736 2.645 1.091l.373.145c.831.328 1.67.648 2.515.96l.458.17a117.873 117.873 0 0 0 3.333 1.156c.948.314 1.902.62 2.866.91l.086.025c.943.283 1.895.551 2.852.81l.588.159c.958.253 1.922.495 2.893.722.179.042.36.081.539.123.923.211 1.852.411 2.786.597l.331.068a95.383 95.383 0 0 0 3.659.639c1.011.158 2.027.303 3.049.428.127.016.254.028.381.043.954.113 1.913.21 2.877.293.184.016.367.034.55.049 1.025.082 2.055.145 3.089.192.218.01.436.017.655.025 1.069.04 2.142.067 3.22.067a86.02 86.02 0 0 0 3.22-.067c.223-.005.441-.013.659-.023z" style="fill:#009add"/><circle cx="127.981" cy="128.76" r="39.019" style="fill:#fede3a"/><path d="M127.981 156.405c-19.617 0-35.848-14.479-38.602-33.332a39.344 39.344 0 0 0-.417 5.687c0 21.549 17.469 39.019 39.019 39.019 21.549 0 39.019-17.469 39.019-39.019 0-1.932-.146-3.83-.417-5.687-2.754 18.853-18.985 33.332-38.602 33.332z" style="fill:#f7cb15"/><circle cx="127.981" cy="128.76" r="20.653" style="fill:#ef5a9d"/><path d="M127.981 138.039c-9.432 0-17.37-6.329-19.842-14.966a20.61 20.61 0 0 0-.812 5.687c0 11.406 9.247 20.653 20.653 20.653 11.406 0 20.653-9.247 20.653-20.653 0-1.975-.294-3.878-.811-5.687-2.471 8.637-10.409 14.966-19.841 14.966z" style="fill:#e43d91"/><circle transform="rotate(-80.781 140.006 117.384)" cx="140.004" cy="117.386" style="fill:#fff" r="10.423"/><path d="M140.004 121.96c-4.74 0-8.734-3.167-9.999-7.498a10.418 10.418 0 0 0-.424 2.924c0 5.757 4.667 10.423 10.423 10.423s10.423-4.667 10.423-10.423c0-1.016-.152-1.996-.424-2.924-1.264 4.331-5.258 7.498-9.999 7.498z" style="fill:#e6e7e8"/></g></g></switch></svg>